<svg xmlns="http://www.w3.org/2000/svg" xmlns:xlink="http://www.w3.org/1999/xlink" viewBox="0,0,256,256" width="80px" height="80px" fill-rule="nonzero"><g fill="#969696" fill-rule="nonzero" stroke="none" stroke-width="1" stroke-linecap="butt" stroke-linejoin="miter" stroke-miterlimit="10" stroke-dasharray="" stroke-dashoffset="0" font-family="none" font-weight="none" font-size="none" text-anchor="none" style="mix-blend-mode: normal"><g transform="scale(3.2,3.2)"><path d="M63,7c-5.51172,0 -10,4.48828 -10,10c0,0.28906 0.01953,0.57422 0.04688,0.85938l-29.59375,14.51563c-1.74219,-1.47656 -3.99219,-2.375 -6.45312,-2.375c-5.51172,0 -10,4.48828 -10,10c0,5.51172 4.48828,10 10,10c2.46094,0 4.71094,-0.89844 6.45313,-2.375l29.59375,14.51563c-0.02734,0.28516 -0.04687,0.57031 -0.04687,0.85938c0,5.51172 4.48828,10 10,10c5.51172,0 10,-4.48828 10,-10c0,-5.51172 -4.48828,-10 -10,-10c-2.30469,0 -4.42578,0.79297 -6.12109,2.10938l-29.90234,-14.67187c0.00781,-0.14453 0.02344,-0.28906 0.02344,-0.4375c0,-0.14844 -0.01562,-0.29297 -0.02344,-0.4375l29.90234,-14.67187c1.69531,1.31641 3.81641,2.10938 6.12109,2.10938c5.51172,0 10,-4.48828 10,-10c0,-5.51172 -4.48828,-10 -10,-10zM63,9c4.42969,0 8,3.57031 8,8c0,4.42969 -3.57031,8 -8,8c-4.42969,0 -8,-3.57031 -8,-8c0,-4.42969 3.57031,-8 8,-8zM63,11c-0.55078,0 -1,0.44922 -1,1c0,0.55078 0.44922,1 1,1c0.55078,0 1,-0.44922 1,-1c0,-0.55078 -0.44922,-1 -1,-1zM59.48047,12.46484c-0.27344,-0.00391 -0.53516,0.10156 -0.72656,0.29297c-0.38672,0.39063 -0.38672,1.02344 0,1.41406c0.39063,0.39063 1.02734,0.39063 1.41797,0c0.38672,-0.39062 0.38672,-1.02344 0,-1.41406c-0.1875,-0.18359 -0.43359,-0.28906 -0.69141,-0.29297zM66.55078,12.46484c-0.26953,-0.00391 -0.53125,0.10156 -0.72266,0.29297c-0.39062,0.39063 -0.39062,1.02344 0,1.41406c0.39063,0.39063 1.02344,0.39063 1.41406,0c0.39063,-0.39062 0.39063,-1.02344 0,-1.41406c-0.18359,-0.18359 -0.42969,-0.28906 -0.69141,-0.29297zM58,16c-0.55078,0 -1,0.44922 -1,1c0,0.55078 0.44922,1 1,1c0.55078,0 1,-0.44922 1,-1c0,-0.55078 -0.44922,-1 -1,-1zM68,16c-0.55078,0 -1,0.44922 -1,1c0,0.55078 0.44922,1 1,1c0.55078,0 1,-0.44922 1,-1c0,-0.55078 -0.44922,-1 -1,-1zM59.48047,19.53516c-0.27344,-0.00391 -0.53125,0.10156 -0.72266,0.29297c-0.39062,0.39063 -0.39062,1.02344 0,1.41406c0.39063,0.39063 1.02344,0.39063 1.41406,0c0.39063,-0.39062 0.39063,-1.02344 0,-1.41406c-0.18359,-0.18359 -0.43359,-0.28906 -0.69141,-0.29297zM66.55078,19.53516c-0.26953,-0.00391 -0.53125,0.10156 -0.72266,0.29297c-0.39062,0.39063 -0.39062,1.02344 0,1.41406c0.39063,0.39063 1.02344,0.39063 1.41406,0c0.39063,-0.39062 0.39063,-1.02344 0,-1.41406c-0.18359,-0.18359 -0.42969,-0.28906 -0.69141,-0.29297zM53.43359,19.89453c0.39453,1.30859 1.05078,2.5 1.91016,3.52344l-28.67578,14.06641c-0.34766,-1.32422 -0.95312,-2.53906 -1.76562,-3.58984zM63,21c-0.55078,0 -1,0.44922 -1,1c0,0.55078 0.44922,1 1,1c0.55078,0 1,-0.44922 1,-1c0,-0.55078 -0.44922,-1 -1,-1zM17,32c4.42969,0 8,3.57031 8,8c0,4.42969 -3.57031,8 -8,8c-4.42969,0 -8,-3.57031 -8,-8c0,-4.42969 3.57031,-8 8,-8zM17,34c-0.55078,0 -1,0.44922 -1,1c0,0.55078 0.44922,1 1,1c0.55078,0 1,-0.44922 1,-1c0,-0.55078 -0.44922,-1 -1,-1zM20.54688,35.46484c-0.26953,-0.00391 -0.52734,0.10156 -0.71875,0.28906c-0.39062,0.39063 -0.39062,1.02734 0,1.41797c0.39063,0.38672 1.02344,0.38672 1.41406,0c0.39063,-0.39062 0.39063,-1.02734 0,-1.41797c-0.18359,-0.18359 -0.43359,-0.28906 -0.69531,-0.28906zM13.48047,35.46484c-0.27344,-0.00391 -0.53516,0.10156 -0.72656,0.29297c-0.38672,0.39063 -0.38672,1.02344 0,1.41406c0.39063,0.39063 1.02734,0.39063 1.41797,0c0.38672,-0.39062 0.38672,-1.02344 0,-1.41406c-0.1875,-0.18359 -0.43359,-0.28906 -0.69141,-0.29297zM12,39c-0.55078,0 -1,0.44922 -1,1c0,0.55078 0.44922,1 1,1c0.55078,0 1,-0.44922 1,-1c0,-0.55078 -0.44922,-1 -1,-1zM22,39c-0.55078,0 -1,0.44922 -1,1c0,0.55078 0.44922,1 1,1c0.55078,0 1,-0.44922 1,-1c0,-0.55078 -0.44922,-1 -1,-1zM26.66797,42.51563l28.67578,14.06641c-0.85937,1.02344 -1.51562,2.21484 -1.91016,3.52344l-28.53125,-14c0.8125,-1.05078 1.41797,-2.26562 1.76563,-3.58984zM13.48047,42.53516c-0.27344,-0.00391 -0.53125,0.10156 -0.72266,0.29297c-0.39062,0.39063 -0.39062,1.02344 0,1.41406c0.39063,0.39063 1.02344,0.39063 1.41406,0c0.39063,-0.39062 0.39063,-1.02344 0,-1.41406c-0.18359,-0.18359 -0.43359,-0.28906 -0.69141,-0.29297zM20.55078,42.53516c-0.26953,-0.00391 -0.53125,0.10156 -0.72266,0.29297c-0.39062,0.39063 -0.39062,1.02344 0,1.41406c0.39063,0.39063 1.02344,0.39063 1.41406,0c0.39063,-0.39062 0.39063,-1.02344 0,-1.41406c-0.18359,-0.18359 -0.42969,-0.28906 -0.69141,-0.29297zM17,44c-0.55078,0 -1,0.44922 -1,1c0,0.55078 0.44922,1 1,1c0.55078,0 1,-0.44922 1,-1c0,-0.55078 -0.44922,-1 -1,-1zM63,55c4.42969,0 8,3.57031 8,8c0,4.42969 -3.57031,8 -8,8c-4.42969,0 -8,-3.57031 -8,-8c0,-4.42969 3.57031,-8 8,-8zM63,57c-0.55078,0 -1,0.44922 -1,1c0,0.55078 0.44922,1 1,1c0.55078,0 1,-0.44922 1,-1c0,-0.55078 -0.44922,-1 -1,-1zM59.48047,58.46484c-0.27344,-0.00391 -0.53516,0.10156 -0.72656,0.29297c-0.38672,0.39063 -0.38672,1.02344 0,1.41406c0.39063,0.39063 1.02734,0.39063 1.41797,0c0.38672,-0.39062 0.38672,-1.02344 0,-1.41406c-0.1875,-0.18359 -0.43359,-0.28906 -0.69141,-0.29297zM66.54688,58.46484c-0.26953,-0.00391 -0.52734,0.10156 -0.71875,0.28906c-0.1875,0.19141 -0.29297,0.44531 -0.29297,0.71094c0,0.26563 0.10547,0.51953 0.29297,0.70703c0.39063,0.39063 1.02344,0.39063 1.41406,0c0.1875,-0.1875 0.29297,-0.44141 0.29297,-0.70703c0,-0.26562 -0.10547,-0.51953 -0.29297,-0.71094c-0.18359,-0.17969 -0.43359,-0.28516 -0.69531,-0.28906zM58,62c-0.55078,0 -1,0.44922 -1,1c0,0.55078 0.44922,1 1,1c0.55078,0 1,-0.44922 1,-1c0,-0.55078 -0.44922,-1 -1,-1zM68,62c-0.55078,0 -1,0.44922 -1,1c0,0.55078 0.44922,1 1,1c0.55078,0 1,-0.44922 1,-1c0,-0.55078 -0.44922,-1 -1,-1zM66.54688,65.53516c-0.26953,-0.00391 -0.52734,0.10156 -0.71875,0.29297c-0.39062,0.39063 -0.39062,1.02344 0,1.41406c0.39063,0.39063 1.02344,0.39063 1.41406,0c0.39063,-0.39062 0.39063,-1.02344 0,-1.41406c-0.18359,-0.18359 -0.43359,-0.28906 -0.69531,-0.29297zM59.48047,65.53516c-0.27344,-0.00391 -0.53516,0.10156 -0.72656,0.29297c-0.38672,0.39063 -0.38672,1.02734 0,1.41797c0.39063,0.38672 1.02734,0.38672 1.41797,0c0.38672,-0.39062 0.38672,-1.02734 0,-1.41797c-0.1875,-0.18359 -0.43359,-0.28516 -0.69141,-0.29297zM63,67c-0.55078,0 -1,0.44922 -1,1c0,0.55078 0.44922,1 1,1c0.55078,0 1,-0.44922 1,-1c0,-0.55078 -0.44922,-1 -1,-1z"></path></g></g></svg>